<svg t="1736604288345" class="icon" viewBox="0 0 1651 1024" version="1.1" xmlns="http://www.w3.org/2000/svg" p-id="4409" width="200" height="200"><path d="M972.403613 749.997419c-59.986581 4.195097-54.172903-27.912258-18.531097-74.520774 81.259355-108.378839 231.787355-255.636645 238.558968-363.22271 9.348129-139.660387-131.138065-182.899613-275.819355-182.899612-100.64929 2.576516-204.833032 30.488774-275.819355 55.824516-244.504774 86.280258-397.708387 221.745548-494.988387 374.189419-100.64929 150.627097-69.367742 295.473548 148.050581 299.668645 164.203355-6.771613 275.026581-52.422194 386.64258-109.997419 0.792774 0-310.503226 88.856774-425.653677 23.717161-12.750452-6.804645-25.335742-16.152774-28.738065-42.28129 0-53.380129 88.097032-109.171613 139.726452-126.942968v-91.43329c104.018581 36.434581 226.733419 26.293677 331.742968-51.62942 3.402323 9.381161 6.771613 21.140645 5.945806 33.891097h17.771355c4.195097-36.467613-20.314839-71.944258-60.977548-74.520774 11.792516 9.348129 20.314839 16.945548 24.509935 23.717161l-1.585548 1.618581-0.825807 0.792774c-135.300129 94.835613-266.603355 50.803613-279.188645 48.227097l75.313549-73.728-21.140646-53.380129c149.867355-52.422194 273.408-90.640516 478.901678-126.909936l-45.980903-37.128258 23.717161-14.336c121.756903 33.858065 203.875097 59.193806 199.68 123.540645-1.618581 10.96671-5.945806 23.717161-12.750452 37.260388-36.302452 71.944258-142.897548 187.920516-186.136774 237.898322-27.879226 33.06529-55.824516 63.554065-75.313548 94.042839-21.933419 31.281548-33.032258 60.151742-33.858065 86.280258 4.195097 212.595613 631.279484-99.823484 754.820129-182.106839-180.157935 77.09729-375.642839 150.82529-588.07329 164.368516z m137.083871-488.547096c4.558452 8.390194 6.639484 18.696258 6.639484 30.819096a75.379613 75.379613 0 0 0-6.606452-30.819096z" fill="#FF6600" p-id="4410"></path></svg>